<?xml version="1.0" encoding="utf-8"?>
<!-- Generator: Adobe Illustrator 16.0.0, SVG Export Plug-In . SVG Version: 6.00 Build 0)  -->
<!DOCTYPE svg PUBLIC "-//W3C//DTD SVG 1.1//EN" "http://www.w3.org/Graphics/SVG/1.1/DTD/svg11.dtd">
<svg version="1.1" id="Layer_1" xmlns="http://www.w3.org/2000/svg" xmlns:xlink="http://www.w3.org/1999/xlink" x="0px" y="0px"
	 width="1366px" height="1000px" viewBox="0 0 1366 1000" enable-background="new 0 0 1366 1000" xml:space="preserve">
<g>
	<g>
		<path fill="#F2F2F2" d="M739.338,529.346c0,1.502-1.219,2.721-2.722,2.721h-63.68c-1.503,0-2.722-1.219-2.722-2.721v-98.242
			c0-1.502,1.219-2.721,2.722-2.721h63.68c1.503,0,2.722,1.219,2.722,2.721V529.346z"/>
		<g>
			<path fill="#333333" d="M679.155,442.158c-0.452-0.373-0.921-0.756-1.28-1.182c-0.061-0.072-0.149-0.111-0.241-0.111h-0.019
				c-0.094,0-0.184,0.039-0.244,0.111c-0.358,0.426-0.828,0.809-1.28,1.182c-0.959,0.783-1.948,1.596-1.948,2.854
				c0,1.139,0.796,1.936,1.939,1.936c0.552,0,1.032-0.324,1.359-0.621c-0.156,0.67-0.45,1.465-1.004,2.088h2.37
				c-0.554-0.625-0.848-1.42-1.004-2.092c0.326,0.299,0.809,0.625,1.361,0.625c1.142,0,1.939-0.797,1.939-1.936
				C681.104,443.756,680.113,442.943,679.155,442.158z"/>
			<path fill="#4D4D4D" d="M677.615,448.414v-7.549l0,0c-0.094,0-0.184,0.039-0.244,0.111c-0.358,0.426-0.828,0.809-1.28,1.182
				c-0.959,0.783-1.948,1.596-1.948,2.854c0,1.139,0.796,1.936,1.939,1.936c0.552,0,1.032-0.324,1.359-0.621
				c-0.156,0.67-0.45,1.465-1.004,2.088H677.615z"/>
		</g>
		<rect x="672.937" y="431.104" fill="none" width="9.374" height="9.762"/>
		<text transform="matrix(1 0 0 1 674.6738 438.832)" fill="#333333" font-family="'ChunkFive'" font-size="10.8856">K</text>
		<g>
			<path fill="#333333" d="M730.397,518.291c0.451,0.373,0.922,0.756,1.28,1.182c0.06,0.072,0.149,0.111,0.241,0.111h0.02
				c0.093,0,0.182-0.039,0.242-0.111c0.359-0.426,0.829-0.809,1.281-1.182c0.958-0.783,1.948-1.596,1.948-2.854
				c0-1.141-0.796-1.936-1.939-1.936c-0.552,0-1.032,0.324-1.36,0.621c0.158-0.672,0.451-1.465,1.005-2.088h-2.37
				c0.554,0.623,0.847,1.42,1.004,2.092c-0.326-0.299-0.809-0.625-1.361-0.625c-1.142,0-1.939,0.795-1.939,1.936
				C728.448,516.693,729.439,517.506,730.397,518.291z"/>
			<path fill="#4D4D4D" d="M731.938,512.035v7.549h0.001c0.093,0,0.182-0.039,0.242-0.111c0.359-0.426,0.829-0.809,1.281-1.182
				c0.958-0.783,1.948-1.596,1.948-2.854c0-1.141-0.796-1.936-1.939-1.936c-0.552,0-1.032,0.324-1.36,0.621
				c0.158-0.672,0.451-1.465,1.005-2.088H731.938z"/>
		</g>
		<rect x="727.242" y="519.584" fill="none" width="9.374" height="9.762"/>
		<text transform="matrix(-1 0 0 -1 734.8789 521.6172)" fill="#333333" font-family="'ChunkFive'" font-size="10.8856">K</text>
	</g>
	<g>
		<g>
			<path fill="#333333" d="M687.861,503.789c0,0-4.054-1.465-7.827-5.563v-5.018h7.827V503.789z"/>
			<path fill="#333333" d="M680.034,490.717v-28.154c0,0,3.539-4.512,10.642-5.18C690.676,457.383,690.808,485.9,680.034,490.717z"
				/>
			<g>
				<rect x="700.813" y="458.93" fill="#0B050F" width="3.621" height="6.648"/>
				<rect x="693.55" y="456.633" fill="#0B050F" width="3.623" height="6.648"/>
				<rect x="704.462" y="456.287" fill="#AA292E" width="3.621" height="6.648"/>
				<rect x="697.189" y="458.455" fill="#AA292E" width="3.623" height="6.65"/>
				<rect x="707.969" y="454.283" fill="#0B050F" width="3.622" height="6.65"/>
				<rect x="711.617" y="454.15" fill="#AA292E" width="3.623" height="4.141"/>
			</g>
			<path fill="#0B050F" d="M689.705,457.488c0,0,1.269,18.627-9.671,33.229c0.013,1.285,0.02,1.938,0.02,1.938
				s6.438-3.025,10.102-15.787c3.664-12.76,2.004-19.379,2.004-19.379H689.705z"/>
			<path fill="#F2F2F2" d="M691.379,457.906c0,0,0.336,12.256-2.689,19.6s-5.13,12.352-8.655,15.117v5.604
				c0,0,9.938-9.609,13.197-20.434s2.649-20.293,2.649-20.293L691.379,457.906z"/>
			<g>
				<ellipse fill="#AA292E" cx="693.278" cy="457.58" rx="2.083" ry="0.832"/>
				
					<ellipse transform="matrix(-0.9986 -0.0527 0.0527 -0.9986 1361.6115 954.9147)" fill="#AA292E" cx="693.386" cy="459.52" rx="2.04" ry="0.816"/>
				
					<ellipse transform="matrix(-0.9942 -0.1072 0.1072 -0.9942 1333.2264 995.1641)" fill="#AA292E" cx="693.373" cy="461.732" rx="2.003" ry="0.801"/>
				
					<ellipse transform="matrix(-0.9866 -0.1633 0.1633 -0.9866 1301.3472 1035.3386)" fill="#AA292E" cx="693.231" cy="464.178" rx="1.973" ry="0.788"/>
				
					<ellipse transform="matrix(-0.9754 -0.2205 0.2205 -0.9754 1265.9006 1074.9543)" fill="#AA292E" cx="692.956" cy="466.813" rx="1.948" ry="0.779"/>
				
					<ellipse transform="matrix(-0.9607 -0.2777 0.2777 -0.9607 1227.4679 1113.0078)" fill="#AA292E" cx="692.542" cy="469.591" rx="1.931" ry="0.772"/>
				
					<ellipse transform="matrix(-0.9421 -0.3352 0.3352 -0.9421 1185.532 1149.5835)" fill="#AA292E" cx="691.983" cy="472.472" rx="1.92" ry="0.768"/>
				
					<ellipse transform="matrix(-0.92 -0.3919 0.3919 -0.92 1140.9681 1183.6825)" fill="#AA292E" cx="691.273" cy="475.411" rx="1.916" ry="0.765"/>
				
					<ellipse transform="matrix(-0.8945 -0.447 0.447 -0.8945 1094.1628 1214.8939)" fill="#AA292E" cx="690.407" cy="478.364" rx="1.92" ry="0.767"/>
				
					<ellipse transform="matrix(-0.8659 -0.5002 0.5002 -0.8659 1045.5612 1242.8789)" fill="#AA292E" cx="689.379" cy="481.29" rx="1.931" ry="0.771"/>
				
					<ellipse transform="matrix(-0.8347 -0.5508 0.5508 -0.8347 995.9321 1267.2639)" fill="#AA292E" cx="688.181" cy="484.144" rx="1.949" ry="0.778"/>
				
					<ellipse transform="matrix(-0.8012 -0.5985 0.5985 -0.8012 945.6776 1287.9757)" fill="#AA292E" cx="686.811" cy="486.882" rx="1.973" ry="0.788"/>
				
					<ellipse transform="matrix(-0.766 -0.6429 0.6429 -0.766 895.4719 1304.9161)" fill="#AA292E" cx="685.26" cy="489.462" rx="2.004" ry="0.8"/>
				
					<ellipse transform="matrix(-0.7299 -0.6835 0.6835 -0.7299 846.2783 1318.05)" fill="#AA292E" cx="683.524" cy="491.84" rx="2.04" ry="0.815"/>
				
					<ellipse transform="matrix(-0.6929 -0.721 0.721 -0.6929 797.7087 1327.7007)" fill="#AA292E" cx="681.598" cy="493.973" rx="2.083" ry="0.832"/>
			</g>
			<rect x="701.058" y="467.418" fill="#3856C8" width="5.757" height="6.369"/>
			<polygon fill="#BF9B4D" points="706.565,473.518 701.058,473.518 701.058,479.295 			"/>
			<rect x="700.959" y="468.299" fill="#BF9B4D" width="5.806" height="4.729"/>
			<polygon fill="#BF9B4D" points="706.765,467.883 701.058,467.883 701.058,466.34 706.765,462.885 			"/>
			<path fill="#333333" d="M699.944,479.848l0.221-13.404l-4.725-2.672c0,0-0.929,11.102-2.05,13.096
				C692.269,478.861,699.944,479.848,699.944,479.848z"/>
			<polygon fill="#E8EFFF" points="699.861,479.887 701.266,479.191 701.266,465.475 699.861,465.475 			"/>
			<polygon fill="#0B050F" points="699.409,480.412 700.813,479.717 700.813,465.998 699.409,465.998 			"/>
			<g>
				<path fill="#0B050F" d="M690.231,485.063c0.476-1.199,1.281-2.313,1.878-3.459c0.97-1.869,1.661-3.848,1.978-5.906
					c0.029,0,0.058-0.004,0.088-0.004c2.902,0,5.386,1.799,6.398,4.342c-0.215,0.242-0.424,0.494-0.692,0.719
					c-0.481,0.406-1.05,0.727-1.553,1.111c-1.222,0.938-2.155,2.229-3.521,2.963c-1.029,0.553-2.124,0.938-3.22,1.334
					c-0.471,0.172-0.948,0.342-1.438,0.455c-0.147-0.021-0.295-0.043-0.444-0.064C689.886,486.051,690.042,485.539,690.231,485.063z
					"/>
				<path fill="#BF9B4D" d="M690.231,485.063c0.476-1.199,1.281-2.313,1.878-3.459c0.884-1.703,1.537-3.5,1.886-5.363
					c0.06-0.002,0.119-0.006,0.18-0.006c2.77,0,5.124,1.775,5.99,4.25c-0.089,0.092-0.181,0.184-0.284,0.27
					c-0.481,0.406-1.05,0.727-1.553,1.111c-1.222,0.938-2.155,2.229-3.521,2.963c-1.029,0.553-2.124,0.938-3.22,1.334
					c-0.471,0.172-0.948,0.342-1.438,0.455c-0.147-0.021-0.296-0.043-0.444-0.063C689.886,486.051,690.042,485.539,690.231,485.063z
					"/>
				<path fill="#3856C8" d="M692.109,481.604c0.388-0.75,0.731-1.516,1.024-2.299c0.327-0.104,0.678-0.16,1.041-0.16
					c1.863,0,3.378,1.482,3.433,3.334c-0.9,0.83-1.714,1.766-2.801,2.35c-0.654,0.352-1.335,0.635-2.026,0.896
					c-0.875-0.389-1.557-1.133-1.864-2.049C691.311,482.98,691.748,482.299,692.109,481.604z"/>
			</g>
			<polygon fill="#333333" points="713.601,469.021 707.966,472.275 707.68,461.781 713.601,458.52 			"/>
			<rect x="706.565" y="462.254" fill="#E8EFFF" width="1.403" height="10.619"/>
			<path fill="#C9D8F7" d="M718.964,455.326c0,0-2.425-1.361-4.926-1.711l-0.302,15.217c0,0,3.838-1.424,5.563-1.359
				L718.964,455.326z"/>
			<polygon fill="#715C57" points="718.964,455.326 719.838,455.658 719.838,467.369 718.964,467.369 			"/>
			<path fill="#0B050F" d="M719.838,455.658c0,0,1.293,0.539,1.854,0.971v10.58h-1.854V455.658z"/>
			<path fill="#333333" d="M721.692,456.629c0,0,4.053,1.465,7.826,5.563v5.018h-7.826V456.629z"/>
			<rect x="707.086" y="461.781" fill="#0B050F" width="1.404" height="10.619"/>
			<rect x="713.165" y="453.615" fill="#715C57" width="0.873" height="14.926"/>
			<g>
				<path fill="#AA7941" d="M690.848,486.807c0.526,0,1.212-0.105,2.074-0.432c2.854-1.08,6.343-4.059,10.371-8.848
					c4.851-5.768,9.62-8.061,12.767-8.969c3.403-0.982,7.271-0.799,7.295-0.795l0.166-0.939c-0.1-0.018-4.063-0.227-7.662,0.799
					c-3.29,0.938-8.267,3.311-13.296,9.291c-9.049,10.76-12.499,8.801-12.532,8.779l-0.539,0.787
					C689.561,486.529,689.991,486.807,690.848,486.807z"/>
			</g>
			<path fill="#E8EFFF" d="M713.165,457.916c0,0-11.662,7.605-12.763,7.605s-4.405-2.314-4.405-2.314v1.344
				c0,0,3.984,2.658,4.503,2.658c0.518,0,12.665-7.873,12.665-7.873V457.916z"/>
			<path fill="#BF9B4D" d="M711.861,454.271c0,0-9.856,7.244-11.254,7.244c-1.399,0-5.455-3.623-5.455-3.623L711.861,454.271z"/>
			<path fill="#BF9B4D" d="M713.165,456.99c0,0-11.662,7.736-12.763,7.736s-4.405-2.607-4.405-2.607v1.305
				c0,0,3.984,2.574,4.503,2.574c0.518,0,12.665-7.629,12.665-7.629V456.99z"/>
			<path fill="#AA7941" d="M696.315,458.428c0,0,0.027,12.305-2.852,20.422c-2.878,8.117-10.123,19.531-12.253,20.566l-1.177-1.189
				c0,0,5.098-4.203,12.394-19.975c1.899-7.807,1.964-4.43,2.882-20.336C696.228,442.008,696.315,458.428,696.315,458.428z"/>
			<path fill="#333333" d="M729.519,469.701v28.154c0,0-3.539,4.512-10.641,5.18C718.878,503.035,718.745,474.518,729.519,469.701z"
				/>
			<g>
				<rect x="705.118" y="494.84" fill="#0B050F" width="3.622" height="6.648"/>
				<rect x="712.38" y="497.137" fill="#0B050F" width="3.623" height="6.648"/>
				<rect x="701.47" y="497.482" fill="#AA292E" width="3.622" height="6.648"/>
				<rect x="708.74" y="495.313" fill="#AA292E" width="3.622" height="6.648"/>
				<rect x="697.962" y="499.484" fill="#0B050F" width="3.622" height="6.648"/>
				<rect x="694.313" y="502.127" fill="#AA292E" width="3.622" height="4.139"/>
			</g>
			<path fill="#0B050F" d="M719.847,502.93c0,0-1.268-18.627,9.672-33.229c-0.013-1.285-0.02-1.938-0.02-1.938
				s-6.439,3.025-10.103,15.787c-3.663,12.76-2.003,19.379-2.003,19.379H719.847z"/>
			<path fill="#F2F2F2" d="M718.174,502.512c0,0-0.335-12.256,2.688-19.6c3.025-7.346,5.131-12.352,8.656-15.117v-5.604
				c0,0-5.438,1.104-13.196,20.434c-3.26,10.826-2.65,20.293-2.65,20.293L718.174,502.512z"/>
			<g>
				<ellipse fill="#AA292E" cx="716.274" cy="502.838" rx="2.083" ry="0.832"/>
				
					<ellipse transform="matrix(0.9986 0.0527 -0.0527 0.9986 27.3706 -37.0178)" fill="#AA292E" cx="716.166" cy="500.898" rx="2.04" ry="0.816"/>
				
					<ellipse transform="matrix(0.9942 0.1072 -0.1072 0.9942 57.5984 -73.9151)" fill="#AA292E" cx="716.181" cy="498.686" rx="2.004" ry="0.801"/>
				
					<ellipse transform="matrix(0.9866 0.1629 -0.1629 0.9866 90.3893 -110.0435)" fill="#AA292E" cx="716.321" cy="496.239" rx="1.973" ry="0.789"/>
				
					<ellipse transform="matrix(0.9754 0.2206 -0.2206 0.9754 126.5377 -145.9158)" fill="#AA292E" cx="716.596" cy="493.605" rx="1.948" ry="0.779"/>
				
					<ellipse transform="matrix(0.9605 0.2782 -0.2782 0.9605 164.8483 -180.0919)" fill="#AA292E" cx="717.01" cy="490.826" rx="1.931" ry="0.771"/>
				
					<ellipse transform="matrix(0.9421 0.3352 -0.3352 0.9421 205.1032 -212.3221)" fill="#AA292E" cx="717.569" cy="487.946" rx="1.92" ry="0.768"/>
				
					<ellipse transform="matrix(0.92 0.3919 -0.3919 0.92 247.4978 -242.6757)" fill="#AA292E" cx="718.28" cy="485.007" rx="1.916" ry="0.765"/>
				
					<ellipse transform="matrix(0.8945 0.4471 -0.4471 0.8945 291.4175 -270.671)" fill="#AA292E" cx="719.145" cy="482.054" rx="1.92" ry="0.768"/>
				
					<ellipse transform="matrix(0.8658 0.5003 -0.5003 0.8658 336.3428 -296.0417)" fill="#AA292E" cx="720.174" cy="479.128" rx="1.93" ry="0.772"/>
				
					<ellipse transform="matrix(0.8347 0.5508 -0.5508 0.8347 381.5836 -318.5579)" fill="#AA292E" cx="721.372" cy="476.274" rx="1.949" ry="0.778"/>
				
					<ellipse transform="matrix(0.8012 0.5985 -0.5985 0.8012 427.1021 -338.3686)" fill="#AA292E" cx="722.742" cy="473.536" rx="1.973" ry="0.788"/>
				
					<ellipse transform="matrix(0.766 0.6429 -0.6429 0.766 472.2864 -355.4169)" fill="#AA292E" cx="724.292" cy="470.956" rx="2.004" ry="0.802"/>
				
					<ellipse transform="matrix(0.7299 0.6835 -0.6835 0.7299 516.3495 -369.7042)" fill="#AA292E" cx="726.028" cy="468.578" rx="2.04" ry="0.815"/>
				
					<ellipse transform="matrix(0.6929 0.721 -0.721 0.6929 559.8748 -381.6342)" fill="#AA292E" cx="727.955" cy="466.445" rx="2.083" ry="0.832"/>
			</g>
			<rect x="702.738" y="486.631" fill="#3856C8" width="5.758" height="6.369"/>
			<polygon fill="#BF9B4D" points="702.987,486.9 708.496,486.9 708.496,481.123 			"/>
			<rect x="702.788" y="487.391" fill="#BF9B4D" width="5.806" height="4.727"/>
			<polygon fill="#BF9B4D" points="702.788,492.535 708.496,492.535 708.496,494.078 702.788,497.533 			"/>
			<path fill="#333333" d="M709.608,480.57l-0.221,13.404l4.725,2.67c0,0,0.928-11.102,2.05-13.094
				C717.284,481.557,709.608,480.57,709.608,480.57z"/>
			<polygon fill="#E8EFFF" points="709.69,480.529 708.287,481.225 708.287,494.945 709.69,494.945 			"/>
			<polygon fill="#0B050F" points="710.144,480.006 708.74,480.701 708.74,494.42 710.144,494.42 			"/>
			<g>
				<path fill="#0B050F" d="M719.322,475.354c-0.477,1.201-1.282,2.313-1.879,3.461c-0.97,1.869-1.661,3.848-1.979,5.906
					c-0.029,0-0.058,0.002-0.086,0.002c-2.903,0-5.386-1.797-6.399-4.34c0.215-0.242,0.425-0.494,0.692-0.719
					c0.481-0.406,1.051-0.727,1.554-1.111c1.221-0.938,2.154-2.227,3.52-2.963c1.03-0.553,2.125-0.938,3.222-1.334
					c0.47-0.172,0.947-0.342,1.437-0.457c0.147,0.023,0.295,0.045,0.443,0.066C719.667,474.367,719.512,474.879,719.322,475.354z"/>
				<path fill="#BF9B4D" d="M719.322,475.354c-0.477,1.201-1.282,2.313-1.879,3.461c-0.884,1.703-1.536,3.498-1.886,5.363
					c-0.06,0.002-0.119,0.006-0.179,0.006c-2.771,0-5.125-1.775-5.991-4.25c0.089-0.092,0.182-0.184,0.284-0.27
					c0.481-0.406,1.051-0.727,1.554-1.111c1.221-0.938,2.154-2.227,3.52-2.963c1.03-0.553,2.125-0.938,3.222-1.334
					c0.47-0.172,0.947-0.342,1.437-0.457c0.147,0.023,0.296,0.045,0.443,0.066C719.667,474.367,719.512,474.879,719.322,475.354z"/>
				<path fill="#3856C8" d="M717.443,478.814c-0.389,0.748-0.73,1.516-1.024,2.299c-0.329,0.104-0.678,0.16-1.04,0.16
					c-1.864,0-3.378-1.484-3.434-3.334c0.901-0.83,1.714-1.766,2.8-2.35c0.655-0.352,1.337-0.635,2.027-0.896
					c0.875,0.389,1.557,1.133,1.864,2.047C718.242,477.438,717.805,478.119,717.443,478.814z"/>
			</g>
			<polygon fill="#333333" points="695.951,491.395 701.588,488.143 701.872,498.637 695.951,501.898 			"/>
			<rect x="701.584" y="487.545" fill="#E8EFFF" width="1.403" height="10.619"/>
			<path fill="#C9D8F7" d="M690.588,505.09c0,0,2.426,1.363,4.927,1.713l0.303-15.217c0,0-3.839,1.424-5.563,1.359L690.588,505.09z"
				/>
			<polygon fill="#715C57" points="690.588,505.09 689.715,504.76 689.715,493.049 690.588,493.049 			"/>
			<path fill="#0B050F" d="M689.715,504.76c0,0-1.294-0.539-1.854-0.971v-10.58h1.854V504.76z"/>
			<rect x="701.063" y="488.018" fill="#0B050F" width="1.402" height="10.619"/>
			<rect x="695.515" y="491.877" fill="#715C57" width="0.873" height="14.926"/>
			<g>
				<path fill="#AA7941" d="M718.705,473.611c-0.526,0-1.212,0.105-2.073,0.432c-2.854,1.08-6.343,4.057-10.372,8.848
					c-4.852,5.77-9.62,8.063-12.767,8.969c-3.403,0.982-7.103,0.529-7.126,0.525l-0.166,0.939c0.1,0.018,3.895,0.496,7.494-0.531
					c3.289-0.936,8.266-3.309,13.295-9.289c9.049-10.76,12.499-8.801,12.532-8.779l0.539-0.787
					C719.993,473.889,719.562,473.611,718.705,473.611z"/>
			</g>
			<path fill="#E8EFFF" d="M696.388,502.502c0,0,11.662-7.605,12.763-7.605s4.405,2.314,4.405,2.314v-1.344
				c0,0-3.984-2.658-4.502-2.658c-0.519,0-12.666,7.873-12.666,7.873V502.502z"/>
			<path fill="#BF9B4D" d="M697.691,506.146c0,0,9.855-7.244,11.255-7.244c1.398,0,5.454,3.623,5.454,3.623L697.691,506.146z"/>
			<path fill="#BF9B4D" d="M696.388,503.428c0,0,11.662-7.736,12.763-7.736s4.405,2.607,4.405,2.607v-1.305
				c0,0-3.984-2.574-4.502-2.574c-0.519,0-12.666,7.631-12.666,7.631V503.428z"/>
			<path fill="#AA7941" d="M713.238,501.988c0,0-0.028-12.305,2.851-20.42c2.879-8.117,9.46-19.408,12.414-20.414l1.016,1.037
				c-2.551,1.289-10.844,13.84-12.395,19.975c-1.898,7.807-1.964,4.43-2.88,20.336C713.325,518.41,713.238,501.988,713.238,501.988z
				"/>
		</g>
		<g>
			<path fill="#E6E6E6" d="M694.888,441.369c0,0,0.626,5.836,0,7.031s-1.822,3.844-1.822,3.844s2.591-0.939,2.648,1.736
				c0.057,2.676-2.135,2.533-2.933,2.533c-0.797,0-3.103-0.939-1.594-4.641c1.509-3.699,1.777-2.221,2.014-4.896
				c0.235-2.676,0-5.436,0-5.436L694.888,441.369z"/>
			<path fill="#F2F2F2" d="M694.063,439.654c0,0,0.626,5.836,0,7.031c-0.626,1.197-1.821,3.844-1.821,3.844s2.59-0.939,2.646,1.736
				c0.058,2.676-2.135,2.533-2.932,2.533s-3.104-0.939-1.594-4.639c1.508-3.701,1.777-2.221,2.013-4.896s0-5.438,0-5.438
				L694.063,439.654z"/>
			<path fill="#E6E6E6" d="M692.969,448.053c0,0-4.475,17.039,5.684,17.039s8.951-13.002,5.777-17.58
				C701.256,442.936,692.969,448.053,692.969,448.053z"/>
			<path fill="#E8EFFF" d="M693.189,440.953c0,0-0.749,2.836-0.296,3.742c0.453,0.904-0.007,2.463,0.075,3.357
				c0.083,0.896,1.304,2.432,3.963,0.621c0,0,6.854,3.664,6.913-1.064c0.06-4.727-0.275-7.248-0.275-7.248
				S695.297,439.436,693.189,440.953z"/>
			<path fill="#666666" d="M711.776,438.857c0,0-0.626,5.836,0,7.031c0.626,1.197,1.822,3.844,1.822,3.844s-2.591-0.939-2.647,1.736
				c-0.058,2.676,2.135,2.533,2.933,2.533c0.796,0,3.102-0.939,1.593-4.641c-1.508-3.699-1.776-2.219-2.013-4.896
				c-0.235-2.674,0-5.436,0-5.436L711.776,438.857z"/>
			<path fill="#808080" d="M710.979,439.654c0,0-0.627,5.836,0,7.031c0.626,1.197,1.821,3.844,1.821,3.844s-2.59-0.939-2.647,1.736
				c-0.057,2.676,2.136,2.533,2.933,2.533c0.798,0,3.103-0.939,1.594-4.639c-1.509-3.701-1.777-2.221-2.013-4.896s0-5.438,0-5.438
				L710.979,439.654z"/>
			<path fill="#999999" d="M709.813,440.48c0,0-0.626,5.836,0,7.031s1.821,3.844,1.821,3.844s-2.59-0.939-2.646,1.736
				c-0.058,2.676,2.134,2.533,2.932,2.533c0.797,0,3.103-0.939,1.594-4.641s-1.777-2.219-2.014-4.896c-0.235-2.676,0-5.436,0-5.436
				L709.813,440.48z"/>
			<path fill="#B3B3B3" d="M708.114,440.736c0,0-0.626,5.836,0,7.031c0.627,1.197,1.822,3.844,1.822,3.844s-2.591-0.939-2.647,1.736
				c-0.058,2.676,2.135,2.533,2.932,2.533c0.798,0,3.103-0.939,1.595-4.641c-1.51-3.699-1.778-2.219-2.013-4.896
				c-0.236-2.674,0-5.436,0-5.436L708.114,440.736z"/>
			<path fill="#CCCCCC" d="M706.463,440.48c0,0-0.626,5.836,0,7.031c0.627,1.195,1.822,3.844,1.822,3.844s-2.591-0.939-2.647,1.736
				s2.135,2.533,2.932,2.533c0.798,0,3.104-0.939,1.595-4.641s-1.777-2.219-2.013-4.896c-0.236-2.676,0-5.436,0-5.436
				L706.463,440.48z"/>
			<path fill="#E6E6E6" d="M704.784,440.254c0,0-0.627,5.834,0,7.029c0.626,1.197,1.821,3.844,1.821,3.844s-2.591-0.939-2.647,1.736
				s2.136,2.533,2.933,2.533s3.103-0.939,1.594-4.639c-1.509-3.701-1.777-2.221-2.013-4.896s0-5.438,0-5.438L704.784,440.254z"/>
			<path fill="#F2F2F2" d="M703.275,439.939c0,0-0.626,5.836,0,7.031s1.822,3.844,1.822,3.844s-2.591-0.939-2.647,1.736
				c-0.058,2.676,2.135,2.533,2.932,2.533s3.103-0.939,1.594-4.639c-1.509-3.701-1.777-2.221-2.013-4.898
				c-0.235-2.676,0-5.436,0-5.436L703.275,439.939z"/>
			<path fill="#F2F2F2" d="M696.932,448.674c0,0-2.741,0.24-3.73,1.908c0,0,1.453,1.404,3.571,0.357c0,0,2.398,0.92,4.594,0.281
				C701.366,451.221,699.847,448.908,696.932,448.674z"/>
			<path fill="#BF9B4D" d="M714.982,432.982l-3.338-0.693l-0.674,3.244c-0.842-0.195-1.73-0.357-2.644-0.488l0.378-3.094
				l-3.54-0.434l-0.387,3.164c-1.008-0.066-2.013-0.109-2.987-0.131v-3.248h-3.612v3.244c-1.097,0.021-2.084,0.061-2.908,0.102
				l-0.548-3.256l-3.888,0.652l1.314,7.811l0.723-0.121l0.009,0.348l19.435,0.75l0.035-0.307l1.02,0.211L714.982,432.982z"/>
			<path fill="#0B050F" d="M692.375,441.18c0,0,10.004-1.527,20.986,1.064l0.103-1.764c0,0-13.768-3.213-21.37-0.826L692.375,441.18
				z"/>
			<g>
				<path fill="#808080" d="M695.824,443.637c0,0-0.174-0.035-0.435-0.055c-0.26-0.025-0.607-0.034-0.943,0.003
					c-0.17,0.016-0.323,0.084-0.478,0.097c-0.138,0.059-0.272,0.092-0.396,0.12c-0.2,0.112-0.391,0.178-0.391,0.178l-0.023-0.021
					c0,0,0.08-0.159,0.289-0.377c0.122-0.066,0.27-0.158,0.441-0.207c0.172-0.029,0.361-0.055,0.543-0.044
					c0.735,0.008,1.399,0.275,1.399,0.275L695.824,443.637z"/>
			</g>
			<g>
				<path fill="#808080" d="M698.734,443.605c0,0,0.664-0.268,1.399-0.275c0.182-0.011,0.371,0.015,0.543,0.044
					c0.172,0.049,0.319,0.141,0.441,0.207c0.209,0.218,0.289,0.377,0.289,0.377l-0.023,0.021c0,0-0.19-0.065-0.391-0.179
					c-0.123-0.027-0.258-0.061-0.396-0.119c-0.154-0.013-0.308-0.081-0.478-0.097c-0.336-0.037-0.684-0.028-0.943-0.003
					c-0.261,0.02-0.435,0.055-0.435,0.055L698.734,443.605z"/>
			</g>
			<g>
				<path fill="#2A3757" d="M697.832,444.813c0,0,0.172,0.147,0.476,0.283c0.154,0.058,0.333,0.134,0.533,0.171
					c0.201,0.038,0.413,0.079,0.631,0.059c0.217,0.011,0.426-0.038,0.625-0.074c0.198-0.031,0.386-0.048,0.543-0.102
					c0.319-0.073,0.56-0.088,0.56-0.088l0.014,0.029c0,0-0.182,0.141-0.496,0.3c-0.153,0.088-0.348,0.156-0.57,0.174
					c-0.216,0.05-0.452,0.055-0.687,0.016c-0.235-0.005-0.461-0.071-0.67-0.136c-0.209-0.06-0.387-0.168-0.535-0.25
					c-0.293-0.186-0.444-0.358-0.444-0.358L697.832,444.813z"/>
			</g>
			<g>
				<path fill="#2A3757" d="M695.744,444.836c0,0-0.108,0.126-0.316,0.265c-0.103,0.07-0.232,0.142-0.379,0.202
					c-0.149,0.046-0.31,0.117-0.48,0.128c-0.17,0.033-0.344,0.058-0.503,0.02c-0.163-0.01-0.31-0.052-0.421-0.12
					c-0.229-0.123-0.353-0.239-0.353-0.239l0.014-0.029c0,0,0.182-0.011,0.41,0.025c0.112,0.033,0.248,0.023,0.387,0.049
					c0.141,0.023,0.288,0.045,0.442,0.04c0.307,0.011,0.608-0.088,0.829-0.173c0.22-0.091,0.349-0.19,0.349-0.19L695.744,444.836z"
					/>
			</g>
			<g>
				<path fill="#2A3757" d="M696.351,444.317c0,0,0.064,0.465,0.052,1.17c-0.006,0.353-0.039,0.765-0.123,1.202
					c-0.043,0.219-0.12,0.438-0.182,0.666c-0.099,0.21-0.199,0.423-0.3,0.636c-0.102,0.217-0.073,0.348,0.059,0.49
					c0.133,0.122,0.319,0.208,0.512,0.255c0.195,0.04,0.392,0.046,0.574,0.034c0.183-0.011,0.359-0.044,0.499-0.115
					c0.144-0.061,0.274-0.139,0.353-0.239c0.099-0.088,0.134-0.199,0.187-0.283c0.059-0.184,0.078-0.303,0.078-0.303h0.031
					c0,0,0.011,0.116-0.004,0.332c-0.028,0.103-0.048,0.242-0.147,0.366c-0.078,0.134-0.215,0.264-0.382,0.353
					c-0.165,0.103-0.367,0.16-0.58,0.194c-0.215,0.041-0.446,0.015-0.68-0.03c-0.229-0.059-0.477-0.152-0.664-0.362
					c-0.095-0.11-0.152-0.246-0.17-0.398c0.006-0.155,0.043-0.317,0.104-0.401c0.109-0.203,0.219-0.407,0.327-0.608
					c0.068-0.213,0.153-0.418,0.205-0.626c0.101-0.419,0.162-0.82,0.192-1.167c0.061-0.694,0.028-1.162,0.028-1.162L696.351,444.317
					z"/>
			</g>
		</g>
		<g>
			<path fill="#E6E6E6" d="M714.665,519.08c0,0-0.626-5.836,0-7.031s1.822-3.844,1.822-3.844s-2.591,0.939-2.647-1.736
				s2.135-2.533,2.932-2.533c0.798,0,3.104,0.939,1.594,4.641c-1.508,3.699-1.777,2.221-2.013,4.896s0,5.438,0,5.438L714.665,519.08
				z"/>
			<path fill="#F2F2F2" d="M715.49,520.795c0,0-0.626-5.836,0-7.033c0.626-1.195,1.822-3.842,1.822-3.842s-2.591,0.939-2.647-1.736
				c-0.058-2.676,2.135-2.533,2.932-2.533c0.798,0,3.103,0.939,1.595,4.639c-1.509,3.701-1.777,2.221-2.014,4.896
				c-0.235,2.676,0,5.438,0,5.438L715.49,520.795z"/>
			<path fill="#E6E6E6" d="M716.584,512.395c0,0,4.475-17.039-5.683-17.039c-10.159,0-8.953,13.004-5.778,17.58
				C708.298,517.514,716.584,512.395,716.584,512.395z"/>
			<path fill="#E8EFFF" d="M716.363,519.496c0,0,0.749-2.836,0.296-3.742s0.007-2.463-0.075-3.359
				c-0.082-0.895-1.304-2.432-3.963-0.619c0,0-6.854-3.662-6.913,1.064s0.275,7.248,0.275,7.248S714.256,521.014,716.363,519.496z"
				/>
			<path fill="#666666" d="M697.776,521.592c0,0,0.626-5.836,0-7.031s-1.822-3.844-1.822-3.844s2.591,0.939,2.648-1.736
				c0.057-2.676-2.136-2.533-2.933-2.533s-3.104,0.939-1.595,4.639c1.51,3.701,1.778,2.221,2.014,4.896s0,5.438,0,5.438
				L697.776,521.592z"/>
			<path fill="#808080" d="M698.573,520.795c0,0,0.626-5.836,0-7.033c-0.626-1.195-1.822-3.842-1.822-3.842s2.591,0.939,2.648-1.736
				c0.057-2.676-2.135-2.533-2.933-2.533c-0.797,0-3.103,0.939-1.594,4.639c1.509,3.701,1.778,2.221,2.014,4.896s0,5.438,0,5.438
				L698.573,520.795z"/>
			<path fill="#999999" d="M699.74,519.969c0,0,0.626-5.836,0-7.031s-1.821-3.844-1.821-3.844s2.59,0.939,2.647-1.736
				c0.057-2.676-2.135-2.533-2.933-2.533c-0.797,0-3.103,0.939-1.594,4.641c1.509,3.699,1.777,2.221,2.013,4.896
				c0.236,2.676,0,5.438,0,5.438L699.74,519.969z"/>
			<path fill="#B3B3B3" d="M701.438,519.713c0,0,0.626-5.836,0-7.031s-1.822-3.844-1.822-3.844s2.591,0.939,2.648-1.736
				c0.056-2.676-2.136-2.533-2.933-2.533c-0.798,0-3.104,0.939-1.595,4.639c1.509,3.701,1.778,2.221,2.014,4.896s0,5.438,0,5.438
				L701.438,519.713z"/>
			<path fill="#CCCCCC" d="M703.089,519.969c0,0,0.627-5.836,0-7.031c-0.626-1.195-1.821-3.844-1.821-3.844s2.591,0.939,2.647-1.736
				s-2.135-2.533-2.932-2.533c-0.798,0-3.104,0.939-1.595,4.641c1.509,3.699,1.778,2.221,2.014,4.896s0,5.438,0,5.438
				L703.089,519.969z"/>
			<path fill="#E6E6E6" d="M704.769,520.195c0,0,0.626-5.834,0-7.031c-0.626-1.195-1.822-3.842-1.822-3.842s2.591,0.939,2.648-1.736
				c0.057-2.676-2.135-2.533-2.933-2.533c-0.797,0-3.103,0.938-1.594,4.639s1.778,2.221,2.014,4.896s0,5.438,0,5.438
				L704.769,520.195z"/>
			<path fill="#F2F2F2" d="M706.277,520.51c0,0,0.627-5.836,0-7.031c-0.626-1.197-1.821-3.844-1.821-3.844s2.59,0.939,2.647-1.736
				c0.057-2.676-2.135-2.533-2.933-2.533c-0.797,0-3.103,0.939-1.594,4.641c1.509,3.699,1.777,2.219,2.013,4.896
				c0.236,2.676,0,5.436,0,5.436L706.277,520.51z"/>
			<path fill="#F2F2F2" d="M712.621,511.775c0,0,2.741-0.24,3.731-1.908c0,0-1.453-1.404-3.572-0.357c0,0-2.399-0.92-4.594-0.281
				C708.187,509.229,709.706,511.541,712.621,511.775z"/>
			<path fill="#BF9B4D" d="M694.571,527.467l3.337,0.693l0.674-3.244c0.843,0.195,1.73,0.357,2.645,0.486l-0.379,3.096l3.54,0.432
				l0.387-3.164c1.008,0.068,2.013,0.111,2.987,0.133v3.248h3.612v-3.244c1.097-0.021,2.085-0.061,2.909-0.102l0.547,3.256
				l3.888-0.652l-1.313-7.811l-0.724,0.121l-0.009-0.348l-19.436-0.75l-0.034,0.307l-1.02-0.211L694.571,527.467z"/>
			<path fill="#0B050F" d="M717.178,519.27c0,0-10.003,1.527-20.986-1.064l-0.103,1.764c0,0,13.768,3.213,21.37,0.826
				L717.178,519.27z"/>
			<g>
				<path fill="#808080" d="M713.729,516.813c0,0,0.174,0.035,0.435,0.055c0.26,0.025,0.607,0.034,0.943-0.003
					c0.17-0.016,0.323-0.084,0.478-0.097c0.138-0.059,0.272-0.092,0.396-0.12c0.2-0.112,0.391-0.178,0.391-0.178l0.023,0.021
					c0,0-0.08,0.159-0.289,0.377c-0.122,0.066-0.27,0.158-0.441,0.207c-0.172,0.029-0.361,0.055-0.543,0.044
					c-0.735-0.008-1.399-0.275-1.399-0.275L713.729,516.813z"/>
			</g>
			<g>
				<path fill="#808080" d="M710.818,516.844c0,0-0.664,0.268-1.399,0.275c-0.182,0.011-0.371-0.015-0.543-0.044
					c-0.172-0.049-0.319-0.141-0.441-0.207c-0.209-0.218-0.289-0.377-0.289-0.377l0.023-0.021c0,0,0.19,0.065,0.391,0.179
					c0.123,0.027,0.258,0.061,0.396,0.119c0.154,0.013,0.308,0.081,0.478,0.097c0.336,0.037,0.684,0.028,0.943,0.003
					c0.261-0.02,0.435-0.055,0.435-0.055L710.818,516.844z"/>
			</g>
			<g>
				<path fill="#2A3757" d="M711.721,515.637c0,0-0.172-0.147-0.476-0.283c-0.154-0.058-0.333-0.134-0.533-0.171
					c-0.201-0.039-0.413-0.079-0.631-0.06c-0.216-0.011-0.426,0.039-0.624,0.074c-0.199,0.031-0.387,0.048-0.544,0.102
					c-0.319,0.072-0.56,0.087-0.56,0.087l-0.014-0.029c0,0,0.182-0.141,0.496-0.3c0.153-0.088,0.348-0.156,0.57-0.173
					c0.217-0.05,0.452-0.055,0.687-0.016c0.236,0.005,0.462,0.072,0.67,0.137c0.209,0.06,0.387,0.168,0.535,0.25
					c0.293,0.186,0.444,0.358,0.444,0.358L711.721,515.637z"/>
			</g>
			<g>
				<path fill="#2A3757" d="M713.809,515.613c0,0,0.108-0.126,0.316-0.265c0.103-0.07,0.232-0.142,0.379-0.202
					c0.15-0.046,0.31-0.117,0.48-0.128c0.17-0.033,0.344-0.059,0.504-0.021c0.162,0.01,0.309,0.051,0.42,0.119
					c0.229,0.123,0.354,0.239,0.354,0.239l-0.014,0.029c0,0-0.182,0.011-0.41-0.025c-0.113-0.032-0.249-0.022-0.388-0.048
					c-0.14-0.023-0.288-0.045-0.441-0.04c-0.308-0.01-0.609,0.088-0.83,0.174c-0.22,0.091-0.349,0.19-0.349,0.19L713.809,515.613z"
					/>
			</g>
			<g>
				<path fill="#2A3757" d="M713.203,516.132c0,0-0.065-0.465-0.053-1.17c0.007-0.353,0.039-0.765,0.123-1.202
					c0.043-0.219,0.12-0.438,0.182-0.666c0.099-0.209,0.199-0.422,0.3-0.635c0.102-0.218,0.073-0.349-0.058-0.491
					c-0.134-0.122-0.32-0.207-0.513-0.254c-0.195-0.041-0.391-0.046-0.574-0.034c-0.183,0.011-0.359,0.044-0.499,0.114
					c-0.144,0.062-0.274,0.139-0.353,0.239c-0.099,0.088-0.134,0.2-0.187,0.283c-0.059,0.184-0.078,0.303-0.078,0.303h-0.031
					c0,0-0.011-0.116,0.004-0.332c0.028-0.103,0.048-0.242,0.147-0.366c0.078-0.134,0.215-0.264,0.382-0.353
					c0.165-0.102,0.367-0.16,0.58-0.193c0.215-0.041,0.446-0.015,0.68,0.029c0.229,0.06,0.477,0.153,0.665,0.363
					c0.095,0.11,0.151,0.246,0.169,0.398c-0.005,0.155-0.043,0.316-0.104,0.4c-0.109,0.204-0.219,0.408-0.327,0.608
					c-0.068,0.213-0.153,0.418-0.205,0.626c-0.101,0.419-0.162,0.82-0.192,1.167c-0.06,0.694-0.027,1.162-0.027,1.162
					L713.203,516.132z"/>
			</g>
		</g>
	</g>
</g>
</svg>
